<svg t="1712766642369" class="icon" viewBox="0 0 1024 1024" version="1.1" xmlns="http://www.w3.org/2000/svg" p-id="5254" width="200" height="200"><path d="M1016.428885 566.8864c-10.205867-93.013333-20.855467-140.219733-49.322666-197.12 0 0 85.333333-256 28.4672-361.233067-19.182933-35.4304-210.602667 48.0256-284.4672 105.233067 0 0-113.7664-28.3648-199.099734-28.3648s-199.099733 28.3648-199.099733 28.3648C239.042219 56.558933 47.622485-26.897067 28.439552 8.533333c-56.866133 105.233067 28.4672 361.233067 28.4672 361.233067C28.439552 426.666667 17.755819 473.873067 7.584085 566.8864c-11.264 101.922133 11.127467 183.1936 20.855467 201.1136 11.093333 20.3776 67.345067 86.016 142.2336 142.2336C284.439552 995.566933 455.106219 1024 512.006485 1024c56.900267 0 227.566933-28.433067 341.333334-113.7664 74.888533-56.183467 131.140267-121.856 142.2336-142.2336 9.728-17.92 32.085333-99.191467 20.855466-201.1136z" fill="#FFCC4D" p-id="5255"></path><path d="M512.006485 554.666667c85.333333 0 85.333333 14.2336 85.333334 42.666666S554.673152 682.666667 512.006485 682.666667s-85.333333-56.900267-85.333333-85.333334 0-42.666667 85.333333-42.666666z" fill="#E75A70" p-id="5256"></path><path d="M56.906752 85.333333c12.6976-38.161067 160.426667 28.433067 188.859733 56.900267 0 0-131.9936 85.333333-160.426666 170.666667C85.339819 312.900267 28.439552 170.666667 56.906752 85.333333z m910.199467 0c-12.6976-38.161067-160.426667 28.433067-188.859734 56.900267 0 0 131.9936 85.333333 160.426667 170.666667 0 0 56.900267-142.2336 28.433067-227.566934z" fill="#F18F26" p-id="5257"></path><path d="M140.362752 159.402667c0-40.277333 172.544 39.697067 144.0768 68.164266-28.433067 28.433067-56.866133 45.568-85.333333 74.0352C170.673152 330.0352 140.362752 187.835733 140.362752 159.368533z m743.287467 0c0-40.277333-172.544 39.697067-144.0768 68.164266 28.433067 28.433067 56.866133 45.568 85.333333 74.0352 28.433067 28.433067 58.743467-113.7664 58.743467-142.2336z" fill="#FFCC4D" p-id="5258"></path><path d="M19.940352 711.099733a14.199467 14.199467 0 0 1-8.8064-25.361066c4.608-3.618133 114.346667-88.746667 302.865067-74.069334 7.850667 0.546133 13.687467 7.406933 13.073066 15.223467-0.580267 7.816533-7.304533 14.2336-15.2576 13.073067-177.288533-13.482667-282.043733 67.310933-283.067733 68.130133a14.506667 14.506667 0 0 1-8.8064 3.003733z m252.245333-132.608a14.574933 14.574933 0 0 1-4.232533-0.648533C131.692885 535.278933 19.462485 567.978667 18.301952 568.32a14.199467 14.199467 0 1 1-8.192-27.204267c4.9152-1.501867 121.890133-35.498667 266.274133 9.591467a14.2336 14.2336 0 0 1-4.1984 27.818667z m731.886934 132.608a14.199467 14.199467 0 0 0 8.8064-25.361066c-4.608-3.618133-114.346667-88.746667-302.865067-74.069334a14.199467 14.199467 0 0 0-13.073067 15.223467c0.580267 7.816533 7.304533 14.2336 15.2576 13.073067 177.288533-13.482667 282.043733 67.310933 283.067734 68.130133 2.628267 2.048 5.7344 3.003733 8.8064 3.003733z m-252.245334-132.608c1.365333 0 2.833067-0.2048 4.232534-0.648533 136.260267-42.564267 248.490667-9.864533 249.6512-9.557333a14.199467 14.199467 0 1 0 8.192-27.204267c-4.9152-1.501867-121.924267-35.498667-266.308267 9.591467a14.2336 14.2336 0 0 0 4.232533 27.818666z" fill="#FEE7B8" p-id="5259"></path><path d="M720.424619 728.814933a14.2336 14.2336 0 0 0-15.701334-1.979733l-113.7664 56.900267c-53.213867 26.589867-191.317333 26.9312-192.7168 26.9312a14.2336 14.2336 0 0 0-7.133866 26.5216v0.034133h0.034133v0.034133c2.048 1.160533 4.369067 1.809067 6.826667 1.8432h199.338666c75.605333 0 116.3264-62.1568 127.317334-95.061333a14.199467 14.199467 0 0 0-4.1984-15.223467zM341.339819 512c31.402667 0 56.900267-44.578133 56.900266-99.566933 0-54.954667-25.463467-99.5328-56.900266-99.5328-31.402667 0-56.900267 44.578133-56.900267 99.5328C284.439552 467.421867 309.937152 512 341.339819 512zM682.673152 512c31.402667 0 56.900267-44.578133 56.900267-99.566933 0-54.954667-25.4976-99.5328-56.900267-99.5328s-56.900267 44.578133-56.900267 99.5328C625.772885 467.421867 651.270485 512 682.673152 512zM597.339819 341.333333a28.398933 28.398933 0 0 1-20.138667-48.5376C697.999019 172.032 819.786752 170.666667 824.940885 170.666667a28.433067 28.433067 0 0 1 0.136534 56.900266c-1.8432 0-104.891733 2.730667-207.598934 105.437867A28.3648 28.3648 0 0 1 597.339819 341.333333z m-170.666667 0a28.3648 28.3648 0 0 1-20.138667-8.328533c-103.082667-103.1168-206.506667-105.472-207.530666-105.472a28.501333 28.501333 0 0 1-28.228267-28.5696 28.3648 28.3648 0 0 1 28.330667-28.296533c5.12 0 126.976 1.365333 247.671466 122.129066A28.398933 28.398933 0 0 1 426.673152 341.333333z" fill="#292F33" p-id="5260"></path></svg>